<svg width="1228" height="289" viewBox="0 0 1228 289" fill="none" xmlns="http://www.w3.org/2000/svg">
<path d="M118.67 47.625H103.739C103.466 45.6932 102.909 43.9773 102.068 42.4773C101.227 40.9545 100.148 39.6591 98.8295 38.5909C97.5114 37.5227 95.9886 36.7045 94.2614 36.1364C92.5568 35.5682 90.7045 35.2841 88.7045 35.2841C85.0909 35.2841 81.9432 36.1818 79.2614 37.9773C76.5795 39.75 74.5 42.3409 73.0227 45.75C71.5455 49.1364 70.8068 53.25 70.8068 58.0909C70.8068 63.0682 71.5455 67.25 73.0227 70.6364C74.5227 74.0227 76.6136 76.5795 79.2955 78.3068C81.9773 80.0341 85.0795 80.8977 88.6023 80.8977C90.5795 80.8977 92.4091 80.6364 94.0909 80.1136C95.7955 79.5909 97.3068 78.8295 98.625 77.8295C99.9432 76.8068 101.034 75.5682 101.898 74.1136C102.784 72.6591 103.398 71 103.739 69.1364L118.67 69.2045C118.284 72.4091 117.318 75.5 115.773 78.4773C114.25 81.4318 112.193 84.0795 109.602 86.4205C107.034 88.7386 103.966 90.5795 100.398 91.9432C96.8523 93.2841 92.8409 93.9545 88.3636 93.9545C82.1364 93.9545 76.5682 92.5455 71.6591 89.7273C66.7727 86.9091 62.9091 82.8295 60.0682 77.4886C57.25 72.1477 55.8409 65.6818 55.8409 58.0909C55.8409 50.4773 57.2727 44 60.1364 38.6591C63 33.3182 66.8864 29.25 71.7955 26.4545C76.7045 23.6364 82.2273 22.2273 88.3636 22.2273C92.4091 22.2273 96.1591 22.7955 99.6136 23.9318C103.091 25.0682 106.17 26.7273 108.852 28.9091C111.534 31.0682 113.716 33.7159 115.398 36.8523C117.102 39.9886 118.193 43.5795 118.67 47.625ZM172.381 23.1818H187.142V68.5227C187.142 73.6136 185.926 78.0682 183.494 81.8864C181.085 85.7045 177.71 88.6818 173.369 90.8182C169.028 92.9318 163.972 93.9886 158.199 93.9886C152.403 93.9886 147.335 92.9318 142.994 90.8182C138.653 88.6818 135.278 85.7045 132.869 81.8864C130.46 78.0682 129.256 73.6136 129.256 68.5227V23.1818H144.017V67.2614C144.017 69.9205 144.597 72.2841 145.756 74.3523C146.938 76.4205 148.597 78.0455 150.733 79.2273C152.869 80.4091 155.358 81 158.199 81C161.063 81 163.551 80.4091 165.665 79.2273C167.801 78.0455 169.449 76.4205 170.608 74.3523C171.79 72.2841 172.381 69.9205 172.381 67.2614V23.1818ZM199.287 93V23.1818H246.332V35.3523H214.048V51.9886H243.912V64.1591H214.048V80.8295H246.469V93H199.287ZM258.068 93V23.1818H285.614C290.886 23.1818 295.386 24.125 299.114 26.0114C302.864 27.875 305.716 30.5227 307.67 33.9545C309.648 37.3636 310.636 41.375 310.636 45.9886C310.636 50.625 309.636 54.6136 307.636 57.9545C305.636 61.2727 302.739 63.8182 298.943 65.5909C295.17 67.3636 290.602 68.25 285.239 68.25H266.795V56.3864H282.852C285.67 56.3864 288.011 56 289.875 55.2273C291.739 54.4545 293.125 53.2955 294.034 51.75C294.966 50.2045 295.432 48.2841 295.432 45.9886C295.432 43.6705 294.966 41.7159 294.034 40.125C293.125 38.5341 291.727 37.3295 289.841 36.5114C287.977 35.6705 285.625 35.25 282.784 35.25H272.83V93H258.068ZM295.773 61.2273L313.125 93H296.83L279.852 61.2273H295.773ZM321.068 93V23.1818H348.614C353.909 23.1818 358.42 24.1932 362.148 26.2159C365.875 28.2159 368.716 31 370.67 34.5682C372.648 38.1136 373.636 42.2045 373.636 46.8409C373.636 51.4773 372.636 55.5682 370.636 59.1136C368.636 62.6591 365.739 65.4205 361.943 67.3977C358.17 69.375 353.602 70.3636 348.239 70.3636H330.682V58.5341H345.852C348.693 58.5341 351.034 58.0455 352.875 57.0682C354.739 56.0682 356.125 54.6932 357.034 52.9432C357.966 51.1705 358.432 49.1364 358.432 46.8409C358.432 44.5227 357.966 42.5 357.034 40.7727C356.125 39.0227 354.739 37.6705 352.875 36.7159C351.011 35.7386 348.648 35.25 345.784 35.25H335.83V93H321.068ZM447.384 58.0909C447.384 65.7045 445.94 72.1818 443.054 77.5227C440.19 82.8636 436.281 86.9432 431.327 89.7614C426.395 92.5568 420.849 93.9545 414.69 93.9545C408.486 93.9545 402.918 92.5455 397.986 89.7273C393.054 86.9091 389.156 82.8295 386.293 77.4886C383.429 72.1477 381.997 65.6818 381.997 58.0909C381.997 50.4773 383.429 44 386.293 38.6591C389.156 33.3182 393.054 29.25 397.986 26.4545C402.918 23.6364 408.486 22.2273 414.69 22.2273C420.849 22.2273 426.395 23.6364 431.327 26.4545C436.281 29.25 440.19 33.3182 443.054 38.6591C445.94 44 447.384 50.4773 447.384 58.0909ZM432.418 58.0909C432.418 53.1591 431.679 49 430.202 45.6136C428.747 42.2273 426.69 39.6591 424.031 37.9091C421.372 36.1591 418.259 35.2841 414.69 35.2841C411.122 35.2841 408.009 36.1591 405.349 37.9091C402.69 39.6591 400.622 42.2273 399.145 45.6136C397.69 49 396.963 53.1591 396.963 58.0909C396.963 63.0227 397.69 67.1818 399.145 70.5682C400.622 73.9545 402.69 76.5227 405.349 78.2727C408.009 80.0227 411.122 80.8977 414.69 80.8977C418.259 80.8977 421.372 80.0227 424.031 78.2727C426.69 76.5227 428.747 73.9545 430.202 70.5682C431.679 67.1818 432.418 63.0227 432.418 58.0909ZM477.878 35.3523V23.1818H535.219V35.3523H513.844V93H499.253V35.3523H477.878ZM544.662 93V23.1818H591.707V35.3523H559.423V51.9886H589.287V64.1591H559.423V80.8295H591.844V93H544.662ZM563.071 16.4318L570.298 0.920454H583.73L573.332 16.4318H563.071ZM665.045 47.625H650.114C649.841 45.6932 649.284 43.9773 648.443 42.4773C647.602 40.9545 646.523 39.6591 645.205 38.5909C643.886 37.5227 642.364 36.7045 640.636 36.1364C638.932 35.5682 637.08 35.2841 635.08 35.2841C631.466 35.2841 628.318 36.1818 625.636 37.9773C622.955 39.75 620.875 42.3409 619.398 45.75C617.92 49.1364 617.182 53.25 617.182 58.0909C617.182 63.0682 617.92 67.25 619.398 70.6364C620.898 74.0227 622.989 76.5795 625.67 78.3068C628.352 80.0341 631.455 80.8977 634.977 80.8977C636.955 80.8977 638.784 80.6364 640.466 80.1136C642.17 79.5909 643.682 78.8295 645 77.8295C646.318 76.8068 647.409 75.5682 648.273 74.1136C649.159 72.6591 649.773 71 650.114 69.1364L665.045 69.2045C664.659 72.4091 663.693 75.5 662.148 78.4773C660.625 81.4318 658.568 84.0795 655.977 86.4205C653.409 88.7386 650.341 90.5795 646.773 91.9432C643.227 93.2841 639.216 93.9545 634.739 93.9545C628.511 93.9545 622.943 92.5455 618.034 89.7273C613.148 86.9091 609.284 82.8295 606.443 77.4886C603.625 72.1477 602.216 65.6818 602.216 58.0909C602.216 50.4773 603.648 44 606.511 38.6591C609.375 33.3182 613.261 29.25 618.17 26.4545C623.08 23.6364 628.602 22.2273 634.739 22.2273C638.784 22.2273 642.534 22.7955 645.989 23.9318C649.466 25.0682 652.545 26.7273 655.227 28.9091C657.909 31.0682 660.091 33.7159 661.773 36.8523C663.477 39.9886 664.568 43.5795 665.045 47.625ZM734.028 23.1818V93H721.278L690.903 49.0568H690.392V93H675.631V23.1818H688.585L718.722 67.0909H719.335V23.1818H734.028ZM760.986 23.1818V93H746.224V23.1818H760.986ZM834.733 47.625H819.801C819.528 45.6932 818.972 43.9773 818.131 42.4773C817.29 40.9545 816.21 39.6591 814.892 38.5909C813.574 37.5227 812.051 36.7045 810.324 36.1364C808.619 35.5682 806.767 35.2841 804.767 35.2841C801.153 35.2841 798.006 36.1818 795.324 37.9773C792.642 39.75 790.563 42.3409 789.085 45.75C787.608 49.1364 786.869 53.25 786.869 58.0909C786.869 63.0682 787.608 67.25 789.085 70.6364C790.585 74.0227 792.676 76.5795 795.358 78.3068C798.04 80.0341 801.142 80.8977 804.665 80.8977C806.642 80.8977 808.472 80.6364 810.153 80.1136C811.858 79.5909 813.369 78.8295 814.688 77.8295C816.006 76.8068 817.097 75.5682 817.96 74.1136C818.847 72.6591 819.46 71 819.801 69.1364L834.733 69.2045C834.347 72.4091 833.381 75.5 831.835 78.4773C830.313 81.4318 828.256 84.0795 825.665 86.4205C823.097 88.7386 820.028 90.5795 816.46 91.9432C812.915 93.2841 808.903 93.9545 804.426 93.9545C798.199 93.9545 792.631 92.5455 787.722 89.7273C782.835 86.9091 778.972 82.8295 776.131 77.4886C773.312 72.1477 771.903 65.6818 771.903 58.0909C771.903 50.4773 773.335 44 776.199 38.6591C779.063 33.3182 782.949 29.25 787.858 26.4545C792.767 23.6364 798.29 22.2273 804.426 22.2273C808.472 22.2273 812.222 22.7955 815.676 23.9318C819.153 25.0682 822.233 26.7273 824.915 28.9091C827.597 31.0682 829.778 33.7159 831.46 36.8523C833.165 39.9886 834.256 43.5795 834.733 47.625ZM909.477 58.0909C909.477 65.7045 908.034 72.1818 905.148 77.5227C902.284 82.8636 898.375 86.9432 893.42 89.7614C888.489 92.5568 882.943 93.9545 876.784 93.9545C870.58 93.9545 865.011 92.5455 860.08 89.7273C855.148 86.9091 851.25 82.8295 848.386 77.4886C845.523 72.1477 844.091 65.6818 844.091 58.0909C844.091 50.4773 845.523 44 848.386 38.6591C851.25 33.3182 855.148 29.25 860.08 26.4545C865.011 23.6364 870.58 22.2273 876.784 22.2273C882.943 22.2273 888.489 23.6364 893.42 26.4545C898.375 29.25 902.284 33.3182 905.148 38.6591C908.034 44 909.477 50.4773 909.477 58.0909ZM894.511 58.0909C894.511 53.1591 893.773 49 892.295 45.6136C890.841 42.2273 888.784 39.6591 886.125 37.9091C883.466 36.1591 880.352 35.2841 876.784 35.2841C873.216 35.2841 870.102 36.1591 867.443 37.9091C864.784 39.6591 862.716 42.2273 861.239 45.6136C859.784 49 859.057 53.1591 859.057 58.0909C859.057 63.0227 859.784 67.1818 861.239 70.5682C862.716 73.9545 864.784 76.5227 867.443 78.2727C870.102 80.0227 873.216 80.8977 876.784 80.8977C880.352 80.8977 883.466 80.0227 886.125 78.2727C888.784 76.5227 890.841 73.9545 892.295 70.5682C893.773 67.1818 894.511 63.0227 894.511 58.0909Z" fill="white"/>
<path d="M420.798 185V181.818L430.642 171.619C431.693 170.511 432.56 169.541 433.241 168.707C433.933 167.865 434.449 167.064 434.79 166.307C435.131 165.549 435.301 164.744 435.301 163.892C435.301 162.926 435.074 162.093 434.619 161.392C434.165 160.682 433.545 160.137 432.759 159.759C431.973 159.37 431.087 159.176 430.102 159.176C429.061 159.176 428.152 159.389 427.375 159.815C426.598 160.241 426.002 160.843 425.585 161.619C425.169 162.396 424.96 163.305 424.96 164.347H420.77C420.77 162.576 421.177 161.027 421.991 159.702C422.806 158.376 423.923 157.348 425.344 156.619C426.764 155.881 428.379 155.511 430.188 155.511C432.015 155.511 433.625 155.876 435.017 156.605C436.419 157.325 437.512 158.31 438.298 159.56C439.084 160.8 439.477 162.202 439.477 163.764C439.477 164.844 439.274 165.9 438.866 166.932C438.469 167.964 437.773 169.115 436.778 170.384C435.784 171.643 434.402 173.172 432.631 174.972L426.849 181.023V181.236H439.946V185H420.798ZM455.457 185.483C453.213 185.473 451.295 184.882 449.705 183.707C448.114 182.533 446.897 180.824 446.054 178.58C445.211 176.335 444.79 173.632 444.79 170.469C444.79 167.315 445.211 164.621 446.054 162.386C446.906 160.152 448.128 158.447 449.719 157.273C451.319 156.098 453.232 155.511 455.457 155.511C457.683 155.511 459.591 156.103 461.182 157.287C462.773 158.461 463.99 160.166 464.832 162.401C465.685 164.626 466.111 167.315 466.111 170.469C466.111 173.641 465.689 176.349 464.847 178.594C464.004 180.829 462.787 182.538 461.196 183.722C459.605 184.896 457.692 185.483 455.457 185.483ZM455.457 181.69C457.427 181.69 458.966 180.729 460.074 178.807C461.191 176.884 461.75 174.105 461.75 170.469C461.75 168.054 461.494 166.013 460.983 164.347C460.481 162.67 459.757 161.402 458.81 160.54C457.872 159.669 456.755 159.233 455.457 159.233C453.497 159.233 451.958 160.199 450.841 162.131C449.723 164.062 449.16 166.842 449.151 170.469C449.151 172.893 449.402 174.943 449.903 176.619C450.415 178.286 451.139 179.55 452.077 180.412C453.014 181.264 454.141 181.69 455.457 181.69ZM471.15 185V181.818L480.994 171.619C482.045 170.511 482.911 169.541 483.593 168.707C484.284 167.865 484.8 167.064 485.141 166.307C485.482 165.549 485.653 164.744 485.653 163.892C485.653 162.926 485.425 162.093 484.971 161.392C484.516 160.682 483.896 160.137 483.11 159.759C482.324 159.37 481.439 159.176 480.454 159.176C479.412 159.176 478.503 159.389 477.727 159.815C476.95 160.241 476.353 160.843 475.937 161.619C475.52 162.396 475.312 163.305 475.312 164.347H471.121C471.121 162.576 471.529 161.027 472.343 159.702C473.157 158.376 474.275 157.348 475.695 156.619C477.116 155.881 478.73 155.511 480.539 155.511C482.367 155.511 483.977 155.876 485.369 156.605C486.77 157.325 487.864 158.31 488.65 159.56C489.436 160.8 489.829 162.202 489.829 163.764C489.829 164.844 489.625 165.9 489.218 166.932C488.82 167.964 488.124 169.115 487.13 170.384C486.136 171.643 484.753 173.172 482.982 174.972L477.201 181.023V181.236H490.298V185H471.15ZM505.809 185.398C503.858 185.398 502.116 185.062 500.582 184.389C499.057 183.717 497.85 182.784 496.96 181.591C496.079 180.388 495.605 178.996 495.539 177.415H499.999C500.056 178.277 500.345 179.025 500.866 179.659C501.396 180.284 502.087 180.767 502.94 181.108C503.792 181.449 504.739 181.619 505.781 181.619C506.926 181.619 507.94 181.42 508.82 181.023C509.71 180.625 510.406 180.071 510.908 179.361C511.41 178.641 511.661 177.812 511.661 176.875C511.661 175.9 511.41 175.043 510.908 174.304C510.416 173.556 509.692 172.969 508.735 172.543C507.788 172.116 506.642 171.903 505.298 171.903H502.84V168.324H505.298C506.377 168.324 507.324 168.13 508.138 167.741C508.962 167.353 509.606 166.813 510.07 166.122C510.534 165.421 510.766 164.602 510.766 163.665C510.766 162.765 510.563 161.984 510.156 161.321C509.758 160.649 509.19 160.123 508.451 159.744C507.722 159.366 506.86 159.176 505.866 159.176C504.919 159.176 504.033 159.351 503.21 159.702C502.395 160.043 501.732 160.535 501.221 161.179C500.71 161.813 500.435 162.576 500.397 163.466H496.15C496.197 161.894 496.661 160.511 497.542 159.318C498.432 158.125 499.606 157.192 501.065 156.52C502.523 155.848 504.142 155.511 505.923 155.511C507.788 155.511 509.398 155.876 510.752 156.605C512.116 157.325 513.167 158.286 513.906 159.489C514.654 160.691 515.023 162.008 515.013 163.438C515.023 165.066 514.568 166.449 513.65 167.585C512.741 168.722 511.529 169.484 510.013 169.872V170.099C511.945 170.393 513.442 171.16 514.502 172.401C515.572 173.641 516.103 175.18 516.093 177.017C516.103 178.617 515.657 180.052 514.758 181.321C513.868 182.59 512.651 183.589 511.107 184.318C509.564 185.038 507.798 185.398 505.809 185.398Z" fill="white"/>
<line x1="333" y1="135" x2="611" y2="135" stroke="white" stroke-width="4"/>
<line x1="2" y1="26" x2="2" y2="84" stroke="white" stroke-width="4"/>
<line x1="959" y1="30" x2="959" y2="88" stroke="white" stroke-width="4"/>
</svg>
